<svg xmlns="http://www.w3.org/2000/svg" width="916.77499" height="612.05507" viewBox="0 0 916.77499 612.05507" xmlns:xlink="http://www.w3.org/1999/xlink" role="img" artist="Katerina Limpitsouni" source="https://undraw.co/"><polygon points="893.363 591.2 884.309 595.057 865.118 561.972 878.481 556.278 893.363 591.2" fill="#ffb6b6"/><polygon points="818.545 599.767 808.704 599.766 804.022 561.806 818.547 561.806 818.545 599.767" fill="#ffb6b6"/><path d="M960.504,754.0061,930.24,754.005v-.38273a11.78023,11.78023,0,0,1,11.77957-11.77939h.00073l5.52809-4.1939,10.31421,4.19454,2.64184.00009Z" transform="translate(-141.6125 -143.97246)" fill="#2f2e41"/><path d="M1040.4808,741.744l-27.84129,11.86459-.15006-.3521a11.7802,11.7802,0,0,1,6.21806-15.45469l.00067-.00029,3.44118-6.02552,11.133-.18521,2.43036-1.03571Z" transform="translate(-141.6125 -143.97246)" fill="#2f2e41"/><path d="M950.5036,519.07544l-14.95707,91.07525,4.07054,13.57179-5.34138,9.612,7.84393,84.41455-3.184,7.00992,8.89614,5.4865h18.10237l.96071-76.42116,4.47161-11.22028V636.4203l9.10287-46.59984,1.676,53.30441,2.64787,11.23785-2.22418,8.00141,2.90619,5.60568,24.906,53.47959h20.29867l-1.56994-12.09425h0c3.63681-1.8413-5.46025-7.22284-6.3344-11.2044l2.98891-6.72505-2.98891-12.70289-2.74056-24.82175,2.89017-52.39458-1.35994-70.55578c-6.8153-9.13739-14.37585-16.18448-23.74572-18.158Z" transform="translate(-141.6125 -143.97246)" fill="#2f2e41"/><circle id="e3f68381-4551-4dde-a951-c654c55667ae" data-name="ab6171fa-7d69-4734-b81c-8dff60f9761b" cx="845.31562" cy="234.64914" r="20.51334" fill="#ffb6b6"/><path d="M902.352,540.59378a8.07233,8.07233,0,0,1,7.54338-9.81388l8.26322-27.47058,9.55326,11.44352-9.31155,24.3321a8.11612,8.11612,0,0,1-16.04831,1.50884Z" transform="translate(-141.6125 -143.97246)" fill="#ffb6b6"/><path id="eb9b57ee-86ab-410d-b03f-f9f5ae1c3330-1833" data-name="f348f81f-b961-4ae4-bc6b-758f6acfb12a" d="M955.95617,427.68036l-3.70326-6.76608-4.77238,1.59305s-5.26816,3.39945-12.64455,16.2327c-3.41169,5.93558-10.78677,43.9972-10.78677,43.9972L906.81028,528.384l17.57476,2.97122,14.66417-37.618,17-36Z" transform="translate(-141.6125 -143.97246)" fill="#6c63ff"/><path d="M986.16786,518.788c14.44336,0,29.01612,2.84375,34.98389,13.00976-.15576-2.21045-.54687-6.04345-.95312-9.56006l-1.49317-9.44873,1.5127-8.66357,2-2-3.58155-3.58154,2.44336-18.08448,8.06495-42.60254A15.471,15.471,0,0,0,1020.62,421.0341l-7.74853-3.72607-12.561-11.65088-22.72168-.16992-7.41259,9.6372-19.51368,6.62793,3.27539,67.76074-2.147,5.00977c.48145.44189,1.49658,1.38623,2.04639,1.99463.77783.86035-.21289,5.29053-.87256,7.85449l-.90723,6.83057,2.855,2.03955-3.71142,4.38428-.7417,5.56494C954.14443,522.31974,970.07607,518.788,986.16786,518.788Z" transform="translate(-141.6125 -143.97246)" fill="#6c63ff"/><path d="M992.17585,398.1305q.13144-.28942.26217-.58085c-.03359.00108-.06683.00591-.10042.00679Z" transform="translate(-141.6125 -143.97246)" fill="#2f2e41"/><path d="M1008.01193,359.0411a5.70955,5.70955,0,0,0-3.57661-1.54637c-1.32646.04275-2.67161,1.2408-2.39679,2.53922A21.08,21.08,0,0,0,976.67,350.52143c-3.29686,1.16315-6.52994,3.49015-7.28727,6.90315a6.21715,6.21715,0,0,1-.78319,2.54824,2.909,2.909,0,0,1-3.096.78436l-.03254-.00959a.96922.96922,0,0,0-1.17112,1.3682l.93283,1.73974a7.47535,7.47535,0,0,1-3.56145-.07574.9684.9684,0,0,0-1.02834,1.507,16.8794,16.8794,0,0,0,13.45889,6.91806c3.72717-.02273,7.49273-1.30728,11.12011-.45017a9.65935,9.65935,0,0,1,6.4968,13.55975c1.11435-1.21886,3.2685-.93029,4.4084.26478a6.04618,6.04618,0,0,1,1.32008,4.62629,21.46516,21.46516,0,0,1-2.20369,7.20511,21.53985,21.53985,0,0,0,12.76843-38.3695Z" transform="translate(-141.6125 -143.97246)" fill="#2f2e41"/><path d="M305.54921,740.95353l9.44673,7.31619,36.72906,6.37279L392.54921,653.1622s25-78.20867,95-62.20867l225-4s69.08338-7.08025,80.5,25.5c2.16244,6.17108,60.5,142.5,60.5,142.5l40.90158-5.77292-4.90158-116.22708-97.14567-225.5-168.85433-10.5433-174,12.0433Z" transform="translate(-141.6125 -143.97246)" fill="#3f3d56"/><circle cx="350.93671" cy="388.98107" r="65" fill="#2f2e41"/><circle cx="568.93671" cy="388.98107" r="65" fill="#2f2e41"/><path d="M416.54921,319.95353l26.7634-5.248s201.50432-28.752,328.87046,5.248l-9.63386,27-337-2Z" transform="translate(-141.6125 -143.97246)" fill="#e6e6e6"/><path d="M688.23818,459.45353H517.22939c-20.76367,0-38.709-14.37744-42.66992-34.18652l-18.71485-93.604a14.99081,14.99081,0,0,1,2.59033-11.82422,15.93792,15.93792,0,0,1,10.94874-6.43213c90.19238-11.19531,179.50195-11.21436,265.45019-.05811a15.69914,15.69914,0,0,1,10.79,6.35157,15.01285,15.01285,0,0,1,2.67139,11.67236l-17.27588,93.31689C727.29042,444.83293,709.29824,459.45353,688.23818,459.45353Z" transform="translate(-141.6125 -143.97246)" fill="#6c63ff"/><path d="M340.4789,335.19279l.74463-13.395a12.9355,12.9355,0,0,1,6.14892-10.30615c10.79737-6.624,39.92334-21.208,77.09229-13.563a12.97676,12.97676,0,0,1,10.2124,10.84619l.99512,6.96973Z" transform="translate(-141.6125 -143.97246)" fill="#3f3d56"/><path d="M864.61953,335.19279l-95.19336-19.44824,1.59912-11.19727A6.69181,6.69181,0,0,1,776.036,298.978c42.86523-10.75733,75.67578,8.34619,84.71142,14.45752a6.76148,6.76148,0,0,1,2.95166,5.19726Z" transform="translate(-141.6125 -143.97246)" fill="#3f3d56"/><path d="M310.2538,749.68889a11.99528,11.99528,0,0,1-6.4917-1.82618c-25.48877-14.88379-41.37939-42.15918-47.19433-81.04589-4.80323-32.1211-2.79737-72.43848,5.96142-119.833C278.058,462.957,310.60488,378.96769,323.87734,346.75773a29.37562,29.37562,0,0,1,20.0708-17.28418c27.36181-6.73,75.12695-18.02,87.60107-18.02,17.09473,0,26.34424,16.09229,26.436,16.25489l.05127.13281,15.01269,65.10059v.93945c8.28223,28.02246,2.12842,48.26513-4.49707,60.313-7.19092,13.07714-16.4956,19.606-16.58838,19.67041-14.61084,11.123-38.415,46.95605-62.10547,93.50293-24.61865,48.37207-42.86865,96.10156-48.81787,127.67871-7.28173,38.64941-17.95605,50.48144-25.62841,53.60058A13.602,13.602,0,0,1,310.2538,749.68889Z" transform="translate(-141.6125 -143.97246)" fill="#e6e6e6"/><path d="M682.601,451.45353H521.02089a41.1678,41.1678,0,0,1-40.34472-33.2622l-17.68311-91.03614a15.01974,15.01974,0,0,1,12.81445-17.76855c85.22412-10.88818,169.61377-10.90674,250.8252-.05664a15.00551,15.00551,0,0,1,12.74121,17.543L723.05068,417.6298A41.06489,41.06489,0,0,1,682.601,451.45353Z" transform="translate(-141.6125 -143.97246)" fill="#e6e6e6"/><path d="M894.848,749.68986a13.60892,13.60892,0,0,1-5.16162-1.043c-7.67236-3.11914-18.34668-14.95117-25.62842-53.60058-5.94922-31.57715-24.19922-79.30664-48.81787-127.67871-23.69043-46.54688-47.49463-82.37989-62.12353-93.51612-.07471-.05127-9.3794-6.58008-16.57032-19.65722-6.62549-12.04786-12.77929-32.29053-4.49707-60.313l.0127-1.05176L747.078,327.77092l.03516-.0625c.09179-.1626,9.34131-16.25489,26.436-16.25489,12.47412,0,60.23926,11.29,87.60108,18.02a29.37993,29.37993,0,0,1,20.0708,17.28418h0c13.27246,32.21,45.81933,116.19922,61.34814,200.22608,8.75879,47.39453,10.76465,87.71191,5.96143,119.833-5.81494,38.88671-21.70557,66.1621-47.22949,81.06835A11.948,11.948,0,0,1,894.848,749.68986Z" transform="translate(-141.6125 -143.97246)" fill="#e6e6e6"/><circle cx="350.93671" cy="377.98107" r="39" fill="#3f3d56"/><circle cx="350.93671" cy="377.98107" r="26" fill="#2f2e41"/><circle cx="568.93671" cy="377.98107" r="39" fill="#3f3d56"/><circle cx="568.93671" cy="377.98107" r="26" fill="#2f2e41"/><circle cx="435.93671" cy="327.98107" r="3" fill="#2f2e41"/><circle cx="448.93671" cy="327.98107" r="3" fill="#2f2e41"/><circle cx="442.93671" cy="338.98107" r="3" fill="#2f2e41"/><circle cx="454.93671" cy="338.98107" r="3" fill="#2f2e41"/><circle cx="466.93671" cy="338.98107" r="3" fill="#2f2e41"/><circle cx="478.93671" cy="338.98107" r="3" fill="#2f2e41"/><circle cx="461.93671" cy="327.98107" r="3" fill="#2f2e41"/><circle cx="474.93671" cy="327.98107" r="3" fill="#2f2e41"/><circle cx="487.93671" cy="327.98107" r="3" fill="#2f2e41"/><path d="M615.54921,564.45353h-26a4.5,4.5,0,1,1,0-9h26a4.5,4.5,0,0,1,0,9Z" transform="translate(-141.6125 -143.97246)" fill="#2f2e41"/><path d="M443.393,368.83976a7.46431,7.46431,0,0,1-7.24414-5.74951l-3.9873-16.92822a7.45695,7.45695,0,0,1,14.5166-3.41943l3.9873,16.92822a7.46695,7.46695,0,0,1-7.27246,9.16894Z" transform="translate(-141.6125 -143.97246)" fill="#3f3d56"/><path d="M762.70546,367.83976a7.467,7.467,0,0,1-7.27246-9.16894l3.98731-16.92822a7.45695,7.45695,0,0,1,14.5166,3.41943l-3.98731,16.92822a7.46431,7.46431,0,0,1-7.24414,5.74951Z" transform="translate(-141.6125 -143.97246)" fill="#3f3d56"/><path d="M388.37783,418.80705a11.94249,11.94249,0,0,1-6.85791-2.16357l-8.36963-5.85889a11.96821,11.96821,0,0,1-5.10108-9.79736V383.04387a13.60583,13.60583,0,0,1,13.59033-13.59034h12.81934a13.60583,13.60583,0,0,1,13.59033,13.59034v18.11962a12.00227,12.00227,0,0,1-4.86523,9.627l-7.7124,5.6831A11.94157,11.94157,0,0,1,388.37783,418.80705Z" transform="translate(-141.6125 -143.97246)" fill="#3f3d56"/><path d="M394.45888,484.45353H381.63954a13.60583,13.60583,0,0,1-13.59033-13.59033V452.91984a11.96821,11.96821,0,0,1,5.10108-9.79736l8.36963-5.85889a11.95,11.95,0,0,1,13.95166.16992l7.7124,5.68311a12.00226,12.00226,0,0,1,4.86523,9.62695V470.8632A13.60583,13.60583,0,0,1,394.45888,484.45353Z" transform="translate(-141.6125 -143.97246)" fill="#3f3d56"/><path d="M434.45888,446.95353H416.51552a11.9682,11.9682,0,0,1-9.79736-5.10107l-5.85889-8.36963a11.94918,11.94918,0,0,1,.16992-13.95166l5.68311-7.7124a12.00224,12.00224,0,0,1,9.62695-4.86524h18.11963a13.60583,13.60583,0,0,1,13.59033,13.59034V433.3632A13.60583,13.60583,0,0,1,434.45888,446.95353Z" transform="translate(-141.6125 -143.97246)" fill="#3f3d56"/><path d="M358.5829,446.95353H340.63954a13.60583,13.60583,0,0,1-13.59033-13.59033V420.54387a13.60583,13.60583,0,0,1,13.59033-13.59034h18.11963a12.00226,12.00226,0,0,1,9.627,4.86524l5.6831,7.7124a11.94918,11.94918,0,0,1,.16992,13.95166l-5.85888,8.36963A11.9682,11.9682,0,0,1,358.5829,446.95353Z" transform="translate(-141.6125 -143.97246)" fill="#3f3d56"/><circle cx="675.93671" cy="231.98107" r="23" fill="#3f3d56"/><circle cx="726.93671" cy="284.98107" r="23" fill="#3f3d56"/><circle cx="675.93671" cy="334.98107" r="23" fill="#3f3d56"/><circle cx="624.93671" cy="283.98107" r="23" fill="#3f3d56"/><path d="M868.54921,443.95353a15,15,0,1,1,15-15A15.017,15.017,0,0,1,868.54921,443.95353Zm0-28a13,13,0,1,0,13,13A13.01443,13.01443,0,0,0,868.54921,415.95353Z" transform="translate(-141.6125 -143.97246)" fill="#e6e6e6"/><path d="M833.62148,387.1132l-30.14453-.42627,15.44189-25.89306Zm-26.65235-2.37744,23.2168.32861-11.32373-20.2705Z" transform="translate(-141.6125 -143.97246)" fill="#e6e6e6"/><path d="M778.54921,439.95353h-24v-24h24Zm-22-2h20v-20h-20Z" transform="translate(-141.6125 -143.97246)" fill="#e6e6e6"/><polygon points="688.348 345.307 677.353 334.333 687.049 324.655 685.635 323.239 675.937 332.919 666.238 323.239 664.825 324.655 674.521 334.333 663.526 345.307 664.939 346.723 675.937 335.746 686.935 346.723 688.348 345.307" fill="#e6e6e6"/><polygon points="867.437 344.481 828.622 373.694 872.437 354.481 867.437 344.481" opacity="0.2"/><polygon points="149.437 380.481 100.437 382.481 94.437 349.481 136.437 336.481 149.437 380.481" fill="#a0616a"/><path d="M273.03419,443.5775l-10.92912-11.12829,13.40058-20.48994,22.93595-38.17886a8.92578,8.92578,0,1,1,10.90394,4.78047l-18.93168,40.75925Z" transform="translate(-141.6125 -143.97246)" fill="#a0616a"/><path d="M260.92741,468.9824a12.31685,12.31685,0,0,1-12.152,5.50228,11.51513,11.51513,0,0,1-9.67515-8.11036,10.97913,10.97913,0,0,1,1.20968-9.16639c7.31128-12.32521,20.79575-28.60229,20.93094-28.76489l.21472-.25885,22.74329,4.92744Z" transform="translate(-141.6125 -143.97246)" fill="#6c63ff"/><polygon points="137.758 597.772 151.347 597.771 157.811 545.356 137.755 545.357 137.758 597.772" fill="#a0616a"/><path d="M275.90371,737.30783l26.76189-.00109h.00108a17.05569,17.05569,0,0,1,17.05477,17.05451v.55421l-43.81693.00162Z" transform="translate(-141.6125 -143.97246)" fill="#2f2e41"/><polygon points="31.948 591.89 45.384 593.92 59.612 543.061 41.998 540.063 31.948 591.89" fill="#a0616a"/><path d="M170.79627,730.95705l26.46134,3.99952.00107.00017a17.0557,17.0557,0,0,1,14.31369,19.41236l-.08285.548-43.32483-6.54852Z" transform="translate(-141.6125 -143.97246)" fill="#2f2e41"/><path d="M240.04921,516.45353l47-8L301.5917,538.4296l.55422,195.63724-25.79512-.16146-10.78295-158.3435L196.84542,721.87415l-27.71066-3.32527L229.544,561.70656s-3.32527-27.71066,7.20478-41.566Z" transform="translate(-141.6125 -143.97246)" fill="#2f2e41"/><path d="M222.60086,457.39464a11.74351,11.74351,0,0,1,3.239-12.39511l6.67951-6.07145,18.831-3.17265,11.77432-2.14,18.9246,54.8381-45.96314,21.11725c-4.03376-.87091-5.645-3.0774-3.29791-7.46477Z" transform="translate(-141.6125 -143.97246)" fill="#6c63ff"/><path d="M264.78366,475.89835l13.14833-8.39082,17.27483,17.34917L327.81556,515.194a8.92578,8.92578,0,1,1-6.93259,9.67925l-35.96162-26.95341Z" transform="translate(-141.6125 -143.97246)" fill="#a0616a"/><path d="M242.43229,458.7974a12.31545,12.31545,0,0,1-2.86915-13.0264,11.52135,11.52135,0,0,1,9.93625-7.78816,10.97935,10.97935,0,0,1,8.71782,3.07955c10.546,9.70244,23.68193,26.26284,23.81312,26.42841l.20858.26369-9.52538,21.23185Z" transform="translate(-141.6125 -143.97246)" fill="#6c63ff"/><circle cx="101.4736" cy="264.44041" r="20.67092" fill="#a0616a"/><path d="M226.35063,437.861a79.19617,79.19617,0,0,1-9.58987-.58459l-.43626-.05315L212.99492,419.147a30.49642,30.49642,0,0,1,22.7895-35.16087,2.83362,2.83362,0,0,1,2.82194.87368l.7941-.27682a24.51831,24.51831,0,0,1,31.2245,15.07853l.19681.56474-5.2993,1.84781a11.76592,11.76592,0,0,0-6.212,17.16812l5.41815,9.02-.57686.28909A83.7489,83.7489,0,0,1,226.35063,437.861Z" transform="translate(-141.6125 -143.97246)" fill="#2f2e41"/><path d="M936.50927,524.36186a8.07235,8.07235,0,0,1,10.904-5.85811l18.8001-21.66724,4.02128,14.35437-18.46944,18.37488a8.11612,8.11612,0,0,1-15.256-5.2039Z" transform="translate(-141.6125 -143.97246)" fill="#ffb6b6"/><path id="fb39b7b9-f69c-40b6-9f40-8573a72b247d-1834" data-name="f348f81f-b961-4ae4-bc6b-758f6acfb12a" d="M1020.40046,429.10263l7.702-.4165,1.15993,4.89571s-.11434,6.26871-7.13681,19.299-61.43373,71.045-61.43373,71.045l-11.78366-13.37332,29.12557-30.00031L995.672,449.10873Z" transform="translate(-141.6125 -143.97246)" fill="#6c63ff"/></svg>
